<?xml version="1.0" standalone="no"?>
<!DOCTYPE svg PUBLIC "-//W3C//DTD SVG 20010904//EN"
 "http://www.w3.org/TR/2001/REC-SVG-20010904/DTD/svg10.dtd">
<svg version="1.0" xmlns="http://www.w3.org/2000/svg"
 width="1055.000000pt" height="1280.000000pt" viewBox="0 0 1055.000000 1280.000000"
 preserveAspectRatio="xMidYMid meet">
<metadata>
Created by potrace 1.15, written by Peter Selinger 2001-2017
</metadata>
<g transform="translate(0.000000,1280.000000) scale(0.100000,-0.100000)"
fill="#000000" stroke="none">
<path d="M6312 12697 c-36 -113 -105 -257 -175 -363 -198 -300 -493 -490 -872
-560 -141 -27 -459 -27 -600 0 -482 90 -907 416 -1076 826 -17 41 -32 76 -33
77 -1 1 -42 -11 -92 -26 -81 -26 -380 -122 -974 -311 -364 -116 -645 -205
-880 -280 -124 -39 -258 -82 -299 -95 -40 -14 -77 -22 -82 -20 -4 3 -24 -45
-43 -107 -180 -579 -375 -1354 -500 -1993 -20 -99 -40 -202 -46 -230 -41 -209
-130 -732 -175 -1027 -257 -1702 -395 -3643 -444 -6253 -24 -1221 -25 -1385
-9 -1385 9 0 56 -13 106 -30 396 -130 897 -231 1222 -246 58 -2 141 -6 186 -9
l81 -4 7 77 c64 753 125 1810 166 2867 11 286 24 626 30 755 38 895 62 1611
80 2448 l11 463 108 217 c155 309 248 534 317 772 15 52 31 99 35 103 13 17
57 -24 87 -81 74 -139 104 -301 172 -907 17 -148 37 -316 45 -372 13 -87 14
-148 5 -400 -25 -711 -56 -1060 -230 -2558 -93 -799 -138 -1316 -161 -1860
-13 -313 -6 -1208 10 -1339 44 -346 197 -550 489 -656 95 -34 80 -33 612 -80
439 -39 816 -66 1196 -87 430 -24 1558 -24 1999 0 171 9 443 24 605 33 l295
15 100 51 c316 159 618 433 701 636 9 20 28 62 43 92 39 77 46 100 29 100 -11
0 -15 22 -17 98 -2 115 -26 429 -47 632 -58 568 -138 1072 -354 2225 -167 893
-243 1344 -294 1730 -129 976 -121 1707 25 2305 34 138 88 314 95 308 5 -5 16
-38 219 -628 l153 -446 11 -379 c26 -862 86 -1820 161 -2575 6 -58 15 -150 20
-205 110 -1139 214 -1929 350 -2665 21 -113 90 -520 90 -531 0 -3 24 0 53 8
283 73 577 80 1342 28 121 -8 258 -17 304 -20 l84 -5 -6 27 c-4 16 -31 140
-62 277 -131 582 -242 1272 -305 1879 -5 53 -14 139 -20 190 -20 199 -41 434
-60 697 -43 593 -47 651 -95 1475 -94 1604 -160 2335 -291 3205 -160 1068
-407 1970 -749 2745 -128 289 -385 775 -410 775 -8 0 -34 6 -57 14 -24 8 -142
46 -263 84 -121 39 -510 164 -865 277 -776 249 -1016 325 -1021 325 -2 0 -19
-46 -37 -103z m-6125 -6979 c-3 -7 -5 -2 -5 12 0 14 2 19 5 13 2 -7 2 -19 0
-25z m-10 -130 c-2 -13 -4 -3 -4 22 0 25 2 35 4 23 2 -13 2 -33 0 -45z m-10
-175 c-2 -16 -4 -3 -4 27 0 30 2 43 4 28 2 -16 2 -40 0 -55z m-10 -145 c-2
-18 -4 -4 -4 32 0 36 2 50 4 33 2 -18 2 -48 0 -65z m-10 -200 c-2 -24 -4 -7
-4 37 0 44 2 63 4 43 2 -21 2 -57 0 -80z m-17 -327 c-7 -135 -20 -428 -30
-651 -9 -223 -18 -367 -19 -320 0 47 8 283 19 525 29 644 33 721 38 706 3 -8
-1 -125 -8 -260z m1637 -723 c-3 -7 -5 -2 -5 12 0 14 2 19 5 13 2 -7 2 -19 0
-25z m-1690 -540 c-2 -35 -3 -9 -3 57 0 66 1 94 3 63 2 -32 2 -86 0 -120z
m-10 -315 c-2 -32 -3 -8 -3 52 0 61 1 87 3 58 2 -29 2 -78 0 -110z m6001
-2950 c-42 -2 -114 -2 -160 0 -46 1 -11 3 77 3 88 0 125 -2 83 -3z"/>
</g>
</svg>
