<?xml version="1.0" standalone="no"?>
<!DOCTYPE svg PUBLIC "-//W3C//DTD SVG 20010904//EN"
 "http://www.w3.org/TR/2001/REC-SVG-20010904/DTD/svg10.dtd">
<svg version="1.0" xmlns="http://www.w3.org/2000/svg"
 width="1145.000000pt" height="1280.000000pt" viewBox="0 0 1145.000000 1280.000000"
 preserveAspectRatio="xMidYMid meet">
<metadata>
Created by potrace 1.15, written by Peter Selinger 2001-2017
</metadata>
<g transform="translate(0.000000,1280.000000) scale(0.100000,-0.100000)"
fill="#000000" stroke="none">
<path d="M4470 12793 c-378 -8 -1036 -46 -1105 -64 -108 -28 -164 -94 -173
-204 -6 -82 14 -171 93 -410 61 -185 64 -199 104 -490 60 -434 125 -838 276
-1730 199 -1167 264 -1581 330 -2114 105 -848 133 -1392 91 -1741 -51 -420
-161 -758 -344 -1054 -166 -268 -359 -464 -557 -564 -116 -58 -197 -77 -335
-76 -107 0 -149 5 -290 37 -566 126 -1154 164 -1564 102 -390 -59 -578 -176
-715 -445 -78 -153 -120 -298 -171 -600 -16 -92 -42 -200 -58 -245 -41 -111
-56 -211 -48 -321 12 -173 75 -349 165 -461 85 -105 239 -197 453 -269 117
-39 177 -43 258 -14 l55 19 55 -52 c136 -129 102 -113 379 -177 l250 -58 48
48 c80 80 91 78 276 -29 l157 -90 132 -15 c156 -18 444 -46 473 -46 13 0 28
15 43 41 21 37 101 99 127 99 5 0 71 -35 145 -77 l135 -78 115 -5 115 -5 6
-91 c7 -92 27 -155 69 -213 19 -27 20 -44 20 -271 l0 -242 112 -114 c166 -170
238 -220 498 -350 253 -126 530 -226 854 -309 398 -102 662 -133 896 -105 110
14 129 22 175 77 46 55 86 73 164 73 51 0 71 -6 138 -42 218 -116 205 -112
306 -111 110 1 339 45 505 97 63 20 115 36 116 36 2 0 19 33 39 73 72 144 102
154 249 81 l93 -46 240 75 240 75 16 62 c18 66 40 102 81 133 37 28 74 16 129
-44 26 -27 53 -49 60 -49 10 0 264 84 286 94 1 1 20 91 44 202 l42 200 64 43
c35 23 101 60 146 81 96 45 517 192 532 186 5 -2 95 -72 199 -155 104 -83 192
-151 197 -151 18 0 504 123 511 129 4 4 -3 47 -17 96 -13 49 -22 91 -20 94 9
8 130 -30 171 -54 23 -14 53 -38 67 -54 l25 -30 177 56 177 57 -8 118 c-4 69
-3 118 2 118 5 0 34 -19 64 -41 140 -105 234 -104 306 5 60 91 73 144 85 358
7 128 8 281 3 453 -5 143 -7 319 -6 390 l3 130 -79 316 c-70 282 -78 322 -71
370 19 132 0 289 -45 379 -14 28 -45 77 -69 108 -33 43 -48 77 -65 142 -12 47
-45 131 -73 187 l-51 103 21 222 c57 610 136 1900 161 2603 24 705 18 2248
-10 2578 -11 131 -11 142 10 220 19 71 22 99 17 212 -4 108 -9 143 -32 205
-15 41 -31 93 -35 115 -15 70 -39 319 -65 680 -27 386 -30 420 -46 582 -9 95
-8 116 5 141 8 16 20 58 27 93 10 55 9 78 -5 149 -30 149 -54 218 -93 260 -78
87 -274 148 -599 187 -202 23 -712 23 -974 -1 -470 -42 -1164 -146 -1421 -212
-56 -14 -58 -14 -155 22 -147 53 -166 59 -323 104 -323 91 -702 151 -1126 180
-355 24 -1291 36 -1875 23z"/>
</g>
</svg>
