<?xml version="1.0" standalone="no"?>
<!DOCTYPE svg PUBLIC "-//W3C//DTD SVG 20010904//EN"
 "http://www.w3.org/TR/2001/REC-SVG-20010904/DTD/svg10.dtd">
<svg version="1.0" xmlns="http://www.w3.org/2000/svg"
 width="1280.000000pt" height="1277.000000pt" viewBox="0 0 1280.000000 1277.000000"
 preserveAspectRatio="xMidYMid meet">
<metadata>
Created by potrace 1.15, written by Peter Selinger 2001-2017
</metadata>
<g transform="translate(0.000000,1277.000000) scale(0.100000,-0.100000)"
fill="#000000" stroke="none">
<path d="M5668 12751 c-391 -19 -386 -18 -427 -85 -12 -19 -28 -62 -34 -95 -7
-33 -15 -62 -17 -65 -3 -3 -62 -14 -130 -26 -285 -47 -572 -112 -916 -205
-194 -53 -207 -55 -327 -55 l-124 0 -12 54 c-14 63 -57 135 -98 164 -62 44
-90 45 -534 25 -398 -19 -418 -21 -448 -42 -45 -33 -78 -96 -92 -177 l-12 -71
-96 -7 c-402 -29 -935 -103 -1336 -187 -325 -68 -774 -193 -876 -244 -68 -35
-125 -89 -157 -149 -24 -46 -27 -61 -26 -151 0 -83 6 -123 37 -236 21 -77 50
-226 66 -340 78 -537 142 -916 277 -1654 52 -286 127 -691 165 -900 176 -963
282 -1646 349 -2265 37 -341 88 -955 80 -960 -5 -3 -25 -42 -45 -88 -59 -136
-69 -202 -69 -487 0 -215 3 -267 22 -372 12 -66 22 -136 22 -154 0 -41 34
-113 65 -137 l23 -19 -33 -234 c-34 -243 -55 -439 -55 -531 l-1 -53 -51 -30
c-29 -16 -61 -45 -71 -63 -28 -47 -36 -178 -37 -572 0 -190 -5 -488 -10 -662
-10 -349 -7 -379 48 -482 36 -68 182 -212 261 -258 60 -35 485 -180 824 -282
278 -83 635 -136 1332 -196 l230 -19 95 92 c277 271 559 537 568 537 20 0 188
-147 385 -335 376 -359 543 -481 754 -553 150 -52 645 -127 1078 -164 199 -17
873 -17 1070 0 580 50 988 126 1584 292 342 95 490 147 676 235 89 41 118 61
146 96 135 167 241 384 305 625 l25 94 -30 113 c-31 122 -79 253 -110 303 -16
26 -27 32 -72 37 -30 4 -58 2 -65 -3 -9 -8 -13 6 -18 57 -4 38 -9 89 -12 114
l-5 46 195 1 c312 2 565 29 901 97 422 86 824 221 1190 400 250 123 393 217
583 385 118 105 127 126 118 288 -16 259 -72 733 -90 758 -8 10 -34 15 -91 17
l-79 2 -17 115 c-19 138 -39 217 -79 317 -75 187 -207 311 -367 344 -79 16
-398 1 -828 -40 -461 -44 -637 -54 -855 -48 -304 9 -462 43 -665 142 -182 89
-347 207 -695 495 -124 102 -240 197 -258 210 l-33 25 6 70 c4 50 -1 125 -19
260 -35 255 -55 347 -126 569 -33 103 -60 196 -60 207 0 23 -25 76 -39 81 -13
4 -44 437 -71 993 -12 243 -35 2144 -34 2815 1 553 13 773 66 1185 22 177 19
232 -24 370 -33 105 -86 154 -209 193 -52 16 -146 41 -209 55 -114 25 -1100
151 -1461 186 -103 10 -191 21 -197 24 -5 4 -12 24 -16 45 -7 49 -54 114 -107
149 -54 35 -106 37 -571 14z"/>
</g>
</svg>
