<?xml version="1.0" standalone="no"?>
<!DOCTYPE svg PUBLIC "-//W3C//DTD SVG 20010904//EN"
 "http://www.w3.org/TR/2001/REC-SVG-20010904/DTD/svg10.dtd">
<svg version="1.0" xmlns="http://www.w3.org/2000/svg"
 width="1280.000000pt" height="788.000000pt" viewBox="0 0 1280.000000 788.000000"
 preserveAspectRatio="xMidYMid meet">
<metadata>
Created by potrace 1.15, written by Peter Selinger 2001-2017
</metadata>
<g transform="translate(0.000000,788.000000) scale(0.100000,-0.100000)"
fill="#000000" stroke="none">
<path d="M10440 7829 c-1248 -598 -2706 -982 -4155 -1094 -634 -48 -1400 -48
-2055 0 -863 65 -1728 203 -2678 428 -73 18 -105 22 -107 14 -3 -7 -218 -867
-479 -1912 l-475 -1900 -124 -126 c-68 -69 -152 -163 -186 -208 -110 -145
-181 -302 -181 -401 0 -98 60 -199 143 -242 89 -45 194 -32 382 47 172 73 296
115 343 115 59 0 91 -33 127 -135 78 -221 124 -293 202 -314 65 -18 87 -13
219 53 151 74 252 111 349 126 127 21 145 -1 177 -210 30 -196 51 -257 105
-296 72 -53 126 -49 251 21 194 109 383 166 440 134 41 -23 51 -55 67 -215 8
-81 20 -165 26 -188 50 -185 198 -257 394 -191 44 14 145 62 224 106 79 44
154 82 166 85 21 5 22 2 28 -108 19 -332 121 -546 281 -589 70 -19 148 -4 289
56 71 31 145 57 165 58 57 3 62 -17 62 -238 0 -204 6 -242 45 -295 52 -71 125
-77 246 -21 155 71 329 121 421 121 66 0 94 -39 152 -211 72 -217 124 -283
233 -295 80 -10 169 40 209 119 43 81 62 245 47 399 l-9 87 41 6 c22 3 166 14
320 26 154 11 395 29 535 39 140 11 271 20 290 20 l35 0 0 -188 c0 -166 2
-195 23 -259 26 -84 72 -149 127 -181 33 -19 52 -22 111 -20 59 3 77 8 107 31
55 42 85 115 112 273 38 224 46 247 103 271 71 31 283 18 467 -29 132 -34 188
-22 242 49 26 34 28 42 28 137 -1 56 -4 153 -9 216 -8 106 -7 116 10 132 62
54 342 50 567 -8 70 -18 114 -11 158 25 29 24 33 34 36 87 4 59 1 74 -51 223
-25 69 -25 75 -10 92 59 66 350 86 613 44 125 -21 181 -7 229 56 44 57 51 122
27 259 -16 91 -19 188 -7 206 31 45 126 58 204 27 63 -25 148 -76 204 -123 47
-40 51 -41 102 -36 63 7 97 23 134 63 44 46 66 110 94 278 47 285 64 292 278
120 134 -108 182 -130 281 -130 169 0 237 80 285 336 27 140 41 176 73 184 34
9 69 -12 157 -92 98 -90 127 -109 183 -123 103 -27 212 37 252 146 54 147 60
159 82 162 12 2 79 -13 150 -33 157 -44 216 -51 281 -35 130 31 188 182 123
321 -56 119 -230 269 -456 394 l-80 44 -104 278 c-114 306 -757 2028 -1311
3508 l-176 470 -49 2 c-42 2 -67 -5 -155 -48z"/>
</g>
</svg>
