<?xml version="1.0" standalone="no"?>
<!DOCTYPE svg PUBLIC "-//W3C//DTD SVG 20010904//EN"
 "http://www.w3.org/TR/2001/REC-SVG-20010904/DTD/svg10.dtd">
<svg version="1.0" xmlns="http://www.w3.org/2000/svg"
 width="640.000000pt" height="1280.000000pt" viewBox="0 0 640.000000 1280.000000"
 preserveAspectRatio="xMidYMid meet">
<metadata>
Created by potrace 1.15, written by Peter Selinger 2001-2017
</metadata>
<g transform="translate(0.000000,1280.000000) scale(0.100000,-0.100000)"
fill="#000000" stroke="none">
<path d="M2745 12791 c-317 -21 -497 -84 -587 -207 -49 -67 -62 -124 -55 -243
15 -239 142 -607 373 -1078 73 -147 105 -203 142 -240 25 -26 46 -50 45 -53
-1 -3 -29 -84 -62 -182 -70 -207 -85 -278 -101 -453 -10 -115 -30 -320 -60
-630 -11 -109 -44 -461 -60 -645 -6 -63 -15 -162 -21 -220 -11 -124 -74 -824
-89 -992 -5 -65 -14 -170 -20 -233 -5 -63 -14 -167 -20 -230 -5 -63 -14 -167
-20 -230 -5 -63 -15 -168 -20 -232 -12 -131 -45 -526 -60 -703 -5 -63 -19
-223 -30 -355 -11 -132 -25 -292 -30 -355 -31 -373 -41 -497 -50 -600 -6 -63
-19 -227 -30 -365 -11 -137 -25 -302 -30 -365 -5 -63 -19 -227 -30 -365 -11
-137 -25 -302 -30 -365 -5 -63 -19 -227 -30 -365 -19 -235 -27 -336 -50 -615
-5 -63 -14 -180 -20 -260 -6 -80 -15 -186 -20 -236 -11 -118 3 -226 41 -326
29 -74 47 -98 372 -476 874 -1016 1000 -1162 1007 -1162 7 0 140 153 1007
1163 325 377 343 401 372 476 38 99 52 207 41 325 -5 50 -14 156 -20 236 -6
80 -15 197 -20 260 -23 279 -31 380 -50 615 -11 138 -25 302 -30 365 -5 63
-19 228 -30 365 -11 138 -25 302 -30 365 -5 63 -19 228 -30 365 -11 138 -24
302 -30 365 -9 103 -19 227 -50 600 -5 63 -19 223 -30 355 -11 132 -25 292
-30 355 -15 177 -48 572 -60 703 -5 64 -14 169 -20 232 -5 63 -14 167 -20 230
-5 63 -14 167 -20 230 -5 63 -15 168 -20 233 -14 154 -77 855 -90 1002 -6 63
-15 162 -20 220 -21 222 -50 539 -60 635 -17 175 -50 516 -61 640 -15 165 -31
239 -100 443 -33 98 -61 179 -62 182 -1 3 20 27 45 53 82 83 319 592 421 902
84 253 115 453 88 561 -27 107 -135 202 -281 249 -149 47 -270 57 -725 60
-231 2 -474 0 -540 -4z"/>
</g>
</svg>
