<?xml version="1.0" standalone="no"?>
<!DOCTYPE svg PUBLIC "-//W3C//DTD SVG 20010904//EN"
 "http://www.w3.org/TR/2001/REC-SVG-20010904/DTD/svg10.dtd">
<svg version="1.0" xmlns="http://www.w3.org/2000/svg"
 width="1280.000000pt" height="920.000000pt" viewBox="0 0 1280.000000 920.000000"
 preserveAspectRatio="xMidYMid meet">
<metadata>
Created by potrace 1.15, written by Peter Selinger 2001-2017
</metadata>
<g transform="translate(0.000000,920.000000) scale(0.100000,-0.100000)"
fill="#000000" stroke="none">
<path d="M5736 9170 c-84 -24 -103 -33 -125 -62 -14 -18 -50 -60 -81 -93 -30
-33 -65 -72 -78 -86 l-22 -26 25 -194 c13 -107 38 -337 55 -512 17 -174 46
-458 64 -630 l33 -312 -22 -350 c-21 -320 -26 -360 -55 -470 -33 -126 -57
-176 -45 -95 6 41 -1 63 -75 240 -246 588 -375 935 -526 1410 l-68 215 -72 90
c-63 79 -133 148 -245 242 l-30 26 -27 -25 c-15 -14 -31 -24 -37 -22 -5 2 -59
-58 -120 -133 -60 -75 -149 -178 -196 -227 -47 -50 -134 -161 -194 -246 -89
-128 -140 -188 -294 -345 -102 -104 -249 -242 -326 -306 -118 -99 -172 -136
-345 -233 -113 -63 -303 -163 -422 -221 l-218 -105 -144 -12 -145 -11 -133
101 c-73 56 -145 112 -160 124 -22 19 -42 72 -112 289 -47 147 -86 270 -86
274 0 7 -219 496 -226 504 -2 2 -65 -50 -140 -115 -75 -66 -142 -124 -149
-130 -35 -27 -64 -562 -45 -829 6 -77 17 -312 25 -523 l15 -382 44 -83 44 -82
-65 -150 -66 -150 2 -138 2 -138 -130 -337 -130 -337 -45 -260 -44 -260 -96
-166 -95 -166 -60 -229 c-33 -126 -80 -333 -106 -461 l-46 -232 20 -113 c11
-62 25 -165 31 -228 5 -63 12 -131 15 -151 4 -32 -2 -45 -61 -123 -35 -47 -62
-90 -59 -95 3 -5 -5 -22 -18 -38 -13 -15 -27 -45 -31 -65 -4 -21 -17 -61 -30
-90 -22 -49 -24 -70 -29 -273 -3 -121 -13 -297 -22 -391 l-17 -172 61 -191
c55 -169 64 -191 86 -197 13 -3 31 -14 41 -25 9 -10 21 -19 26 -19 13 0 283
-94 418 -146 105 -40 149 -49 483 -104 222 -36 399 -60 445 -60 42 0 149 -4
237 -10 88 -5 378 -14 645 -20 267 -6 820 -21 1230 -33 615 -18 816 -20 1150
-13 325 7 489 5 830 -9 l425 -17 510 -74 c673 -99 1167 -145 1485 -139 118 2
222 6 230 9 8 3 148 13 310 21 162 8 387 26 500 40 113 14 342 37 510 50 l305
24 361 86 c213 50 418 105 500 134 76 26 164 54 194 61 30 7 84 26 120 43 36
16 94 39 130 52 36 13 191 85 345 160 154 75 367 177 473 226 l194 90 264 215
c223 182 264 219 264 241 0 15 7 34 16 44 15 16 13 37 -16 258 -17 132 -35
292 -40 357 -6 73 -14 122 -22 129 -7 6 -34 19 -59 29 -41 15 -57 31 -143 145
-64 85 -134 163 -204 227 -59 54 -108 104 -110 111 -2 7 -9 13 -16 13 -7 0
-22 11 -35 24 -19 20 -34 24 -119 29 -53 3 -136 15 -183 26 l-86 20 -204 -23
-204 -23 -160 -63 -160 -62 -255 -5 -255 -5 -194 51 c-107 29 -209 58 -228 66
-33 14 -33 15 -33 79 l0 65 -57 21 c-32 12 -222 82 -423 156 -472 174 -859
345 -950 419 -131 107 -231 236 -487 627 l-243 373 -207 131 -206 130 -34 106
c-29 92 -51 136 -177 339 -330 534 -395 620 -568 746 -68 50 -134 97 -148 105
-22 14 -172 31 -277 31 -23 1 -33 6 -38 21 -4 12 -11 291 -15 621 -6 465 -12
657 -29 855 -15 187 -61 1105 -61 1226 0 6 -39 56 -87 110 -47 54 -108 129
-135 167 -29 38 -57 67 -66 66 -9 0 -62 -13 -116 -29z"/>
</g>
</svg>
