<?xml version="1.0" standalone="no"?>
<!DOCTYPE svg PUBLIC "-//W3C//DTD SVG 20010904//EN"
 "http://www.w3.org/TR/2001/REC-SVG-20010904/DTD/svg10.dtd">
<svg version="1.0" xmlns="http://www.w3.org/2000/svg"
 width="640.000000pt" height="1280.000000pt" viewBox="0 0 640.000000 1280.000000"
 preserveAspectRatio="xMidYMid meet">
<metadata>
Created by potrace 1.15, written by Peter Selinger 2001-2017
</metadata>
<g transform="translate(0.000000,1280.000000) scale(0.100000,-0.100000)"
fill="#000000" stroke="none">
<path d="M4735 12538 c-121 -143 -246 -295 -279 -337 -155 -201 -242 -360
-271 -494 -16 -71 -23 -86 -35 -81 -8 4 -296 11 -640 16 -344 4 -695 12 -780
17 -152 8 -156 7 -197 -16 -24 -13 -50 -38 -59 -55 -13 -25 -18 -28 -29 -17
-7 8 -90 145 -185 304 -214 358 -296 482 -399 607 -130 157 -247 237 -360 246
-43 4 -87 -5 -223 -44 -162 -46 -169 -49 -163 -71 4 -19 1 -23 -18 -23 -35 0
-67 -27 -67 -58 0 -37 42 -202 170 -662 28 -102 64 -232 80 -290 16 -58 97
-348 180 -645 l151 -539 -277 -277 -277 -277 6 -269 c7 -283 21 -500 61 -934
14 -145 27 -316 31 -379 12 -243 15 -268 36 -273 18 -5 19 -22 19 -535 l0
-530 30 -7 c25 -6 29 -10 24 -33 -6 -37 -306 -2373 -399 -3107 -80 -634 -173
-1432 -199 -1700 -33 -340 -36 -381 -36 -467 l0 -88 -28 0 c-28 0 -29 -2 -40
-78 -8 -53 -12 -271 -12 -699 l0 -623 23 -14 c151 -100 498 -111 3122 -102
985 3 1867 9 1962 12 l171 7 12 96 c9 68 11 247 8 621 l-5 525 -121 1280
c-241 2529 -296 3055 -383 3620 -38 254 -59 349 -120 562 -27 94 -49 187 -49
206 0 18 7 81 15 139 17 122 31 363 40 673 6 225 27 471 70 835 52 438 77 742
82 1023 l6 279 -130 131 c-72 73 -143 155 -158 182 -16 28 -53 76 -83 107
l-54 57 21 68 c92 288 185 597 351 1158 105 358 200 679 211 714 18 60 18 65
3 83 -10 10 -24 18 -33 18 -9 0 11 26 48 64 l63 64 -118 78 c-236 154 -333
194 -468 194 l-81 0 -220 -262z m-2802 -927 c96 -71 191 -110 351 -146 l29 -6
-32 -20 c-44 -27 -61 -73 -61 -166 0 -44 -6 -87 -13 -99 -6 -12 -22 -40 -34
-62 -46 -84 -97 -142 -123 -142 -30 0 -39 -13 -85 -126 -19 -48 -46 -99 -58
-113 -13 -15 -35 -47 -50 -72 -14 -25 -33 -52 -42 -59 -19 -16 -24 -30 47 135
84 194 113 318 112 485 -1 138 -19 227 -73 358 -16 39 -28 72 -25 72 3 0 29
-17 57 -39z m2690 -218 c-62 -206 -74 -273 -76 -391 -1 -57 -4 -95 -8 -85 -4
10 -8 27 -8 38 -2 30 -44 116 -84 168 -41 54 -54 104 -39 153 11 36 0 54 -48
73 -22 9 -20 10 20 10 65 2 138 40 216 115 38 36 69 65 70 66 1 0 -19 -66 -43
-147z"/>
</g>
</svg>
