<?xml version="1.0" standalone="no"?>
<!DOCTYPE svg PUBLIC "-//W3C//DTD SVG 20010904//EN"
 "http://www.w3.org/TR/2001/REC-SVG-20010904/DTD/svg10.dtd">
<svg version="1.0" xmlns="http://www.w3.org/2000/svg"
 width="914.000000pt" height="1280.000000pt" viewBox="0 0 914.000000 1280.000000"
 preserveAspectRatio="xMidYMid meet">
<metadata>
Created by potrace 1.15, written by Peter Selinger 2001-2017
</metadata>
<g transform="translate(0.000000,1280.000000) scale(0.100000,-0.100000)"
fill="#000000" stroke="none">
<path d="M2035 12790 c-417 -32 -594 -72 -840 -190 -397 -191 -716 -524 -940
-985 -172 -352 -186 -464 -109 -855 59 -296 151 -603 289 -965 128 -337 237
-585 624 -1428 186 -405 453 -1030 478 -1117 16 -58 18 -107 18 -440 -1 -381
-8 -521 -46 -810 -65 -504 -199 -948 -390 -1293 -53 -94 -62 -108 -260 -402
-347 -516 -675 -1171 -788 -1575 -45 -159 -76 -343 -67 -393 9 -50 25 -67 249
-270 111 -100 301 -279 422 -397 121 -118 265 -253 320 -299 874 -729 2020
-1208 3240 -1353 144 -17 590 -17 715 0 936 128 1757 412 2512 868 410 248
676 457 993 780 105 107 291 283 415 392 123 108 235 213 248 232 22 31 23 42
18 107 -36 442 -375 1181 -920 2003 -82 124 -173 267 -203 319 -208 361 -339
839 -410 1496 -13 121 -17 254 -17 550 -1 507 -13 460 254 1050 384 850 814
1836 905 2075 164 431 269 832 290 1115 9 111 -8 263 -41 366 -26 81 -152 337
-225 456 -167 274 -383 501 -629 663 -319 209 -690 303 -1195 302 -219 0 -395
-17 -594 -58 -339 -68 -577 -166 -876 -361 -218 -142 -474 -263 -667 -315
-109 -30 -311 -32 -438 -4 -237 51 -460 151 -724 326 -265 174 -427 249 -711
325 -268 72 -624 105 -900 85z m908 -519 c164 -42 414 -184 949 -538 111 -73
192 -193 224 -330 35 -150 -1 -709 -57 -878 -46 -140 -164 -250 -476 -445 -92
-58 -220 -138 -283 -178 -417 -267 -845 -384 -1345 -368 -489 15 -574 27 -705
103 -126 74 -302 272 -412 468 -91 160 -120 253 -187 596 -47 237 -43 297 31
444 216 433 496 722 871 900 236 111 394 147 1017 229 158 21 283 19 373 -3z
m3892 -30 c289 -53 524 -105 639 -142 253 -83 514 -272 728 -529 192 -230 275
-411 298 -649 22 -228 -26 -437 -165 -728 -109 -228 -167 -317 -274 -423 -147
-146 -237 -182 -541 -218 -135 -16 -194 -18 -450 -11 -500 12 -655 56 -1136
318 -444 241 -679 447 -793 693 -51 108 -68 184 -81 348 -15 193 -14 334 5
405 60 231 267 466 581 662 127 80 430 242 503 270 178 67 332 68 686 4z
m-2048 -2193 c59 -22 137 -77 233 -167 l65 -60 -70 -1 c-38 0 -266 -7 -505
-15 -252 -8 -439 -10 -444 -5 -5 6 4 16 24 27 18 10 76 52 129 94 53 42 114
85 136 97 120 60 313 74 432 30z m113 -506 c0 -8 -150 -93 -266 -150 -47 -24
-29 -30 -207 72 -64 37 -115 72 -111 77 7 11 584 12 584 1z m587 -149 c-14
-213 -80 -633 -99 -633 -8 0 -518 340 -542 361 -17 15 40 53 384 250 143 81
194 103 249 108 11 1 13 -15 8 -86z m-1635 28 c126 -66 487 -282 487 -291 0
-7 -563 -385 -569 -382 -7 4 -109 571 -110 611 0 26 8 41 36 67 20 19 46 34
59 34 13 0 57 -17 97 -39z m-868 -756 c93 -425 111 -552 256 -1830 248 -2179
263 -2418 194 -3148 -54 -579 -120 -949 -355 -1982 -132 -585 -124 -553 -153
-561 -17 -4 -148 44 -444 164 -232 93 -433 177 -447 186 -14 9 -25 23 -25 31
0 8 115 252 256 542 141 291 277 582 304 648 27 66 89 203 138 305 148 304
228 516 276 733 44 194 62 438 73 987 6 297 -1 459 -38 865 -59 654 -137 1151
-358 2300 -72 373 -95 510 -116 675 -20 165 -20 213 3 233 9 9 85 34 167 57
83 23 161 45 175 50 14 4 28 5 32 1 4 -3 32 -118 62 -256z m3460 200 c83 -19
158 -43 168 -52 30 -27 30 -70 3 -268 -32 -235 -68 -440 -151 -845 -82 -398
-130 -667 -188 -1040 -137 -888 -162 -1188 -153 -1847 7 -514 30 -740 107
-1038 62 -237 67 -249 757 -1690 127 -264 233 -489 237 -501 3 -11 0 -27 -6
-36 -7 -9 -152 -73 -323 -143 -170 -70 -379 -156 -463 -191 -85 -35 -160 -64
-168 -64 -7 0 -20 10 -28 23 -25 40 -153 601 -245 1077 -225 1162 -235 1239
-262 1890 -18 427 -1 696 101 1655 23 209 56 533 75 720 71 697 190 1628 241
1890 16 84 102 470 110 493 2 7 12 11 21 8 10 -3 85 -21 167 -41z m-1710 -62
c375 -240 380 -244 359 -258 -11 -8 -120 -70 -243 -139 -157 -88 -234 -126
-256 -126 -22 0 -82 28 -186 86 -289 163 -307 174 -308 195 0 7 300 211 402
275 40 24 81 44 92 44 11 0 74 -35 140 -77z m3005 -40 c11 -21 11 -20 -224
-633 -409 -1061 -497 -1297 -507 -1345 -12 -54 12 -253 108 -920 62 -427 72
-473 173 -801 146 -472 186 -572 357 -895 251 -476 496 -1056 618 -1465 48
-161 47 -175 -13 -260 -77 -110 -206 -272 -283 -358 -86 -94 -231 -223 -276
-244 -31 -15 -33 -15 -56 9 -39 40 -650 1114 -803 1411 -202 392 -217 454
-234 963 -18 572 12 1233 82 1785 11 91 76 498 145 905 178 1069 183 1102 219
1594 8 117 20 222 26 232 9 18 24 19 207 20 108 1 238 4 287 8 152 13 163 13
174 -6z m-5627 -11 c10 -10 15 -77 20 -255 10 -362 29 -524 153 -1267 106
-633 191 -1204 260 -1745 35 -274 48 -648 42 -1215 -8 -722 -15 -752 -300
-1257 -74 -131 -245 -436 -380 -678 -305 -549 -308 -553 -325 -560 -19 -7 -44
8 -161 99 -180 140 -303 274 -502 547 -76 103 -75 139 1 369 134 399 263 706
579 1374 215 453 328 730 400 976 68 235 96 392 175 985 31 226 60 434 66 464
17 89 12 229 -10 317 -22 84 -198 532 -481 1221 -207 505 -249 610 -249 623 0
6 93 11 253 13 389 5 444 4 459 -11z m1969 -599 c120 -81 218 -148 216 -149
-11 -11 -381 -243 -383 -241 -8 8 -74 518 -69 527 3 6 9 10 12 10 4 0 104 -66
224 -147z m1245 91 c9 -72 1 -156 -30 -316 -27 -140 -30 -148 -52 -148 -18 0
-367 220 -360 227 10 11 421 291 428 292 4 1 10 -24 14 -55z m-558 -603 c232
-133 302 -176 299 -183 -3 -8 -315 -241 -376 -280 -62 -39 -128 -39 -196 2
-62 36 -358 261 -362 275 -3 13 365 236 415 252 20 6 48 12 60 12 13 1 85 -34
160 -78z m459 -413 c-3 -13 -18 -111 -33 -218 -15 -107 -30 -198 -34 -203 -3
-4 -52 32 -109 79 -86 73 -102 91 -99 112 2 18 40 60 125 139 121 112 161 136
150 91z m-1114 -104 c65 -58 117 -113 117 -122 0 -10 -24 -40 -52 -67 -128
-122 -138 -129 -149 -118 -5 5 -19 88 -29 184 -22 196 -24 229 -12 229 5 0 61
-47 125 -106z m604 -335 c52 -41 232 -192 296 -249 11 -9 -391 -350 -413 -350
-18 0 -125 84 -336 263 -46 39 -84 74 -84 77 0 16 304 276 355 304 53 29 104
16 182 -45z m-522 -711 c89 -79 107 -106 87 -134 -20 -29 -146 -125 -160 -122
-14 3 -19 28 -30 158 -12 146 -11 180 4 180 4 0 48 -37 99 -82z m879 40 c16
-62 -5 -253 -32 -280 -8 -8 -141 88 -149 108 -11 30 10 62 82 127 42 37 80 67
84 67 5 0 11 -10 15 -22z m-391 -460 c127 -86 252 -180 247 -186 -8 -12 -122
-94 -215 -155 -120 -78 -123 -78 -311 49 -79 54 -143 101 -142 105 4 9 121
100 222 173 96 69 116 70 199 14z m-457 -522 c63 -61 63 -64 -3 -129 -58 -55
-69 -46 -77 69 -10 135 -3 141 80 60z m824 22 c20 -33 25 -89 14 -147 -5 -22
-14 -33 -30 -37 -27 -7 -46 4 -113 63 l-43 38 68 57 c38 32 72 58 77 58 4 0
16 -15 27 -32z m-346 -377 c95 -74 147 -127 140 -144 -7 -20 -195 -154 -227
-162 -35 -9 -82 14 -191 95 -82 60 -96 75 -84 86 46 45 215 174 232 176 36 6
76 -10 130 -51z m-446 -494 c22 -24 23 -27 8 -55 -22 -43 -66 -93 -77 -86 -5
3 -9 50 -9 105 l0 100 28 -19 c15 -11 37 -31 50 -45z m741 39 c11 -13 15 -206
5 -206 -7 0 -89 93 -101 114 -10 19 -7 26 30 64 46 47 49 48 66 28z m-362
-299 c44 -24 213 -189 213 -207 0 -30 -192 -193 -243 -205 -33 -9 -48 0 -167
96 -59 48 -100 88 -100 98 0 18 59 77 160 162 86 72 99 77 137 56z m-390 -511
c23 -29 48 -66 55 -81 12 -26 9 -29 -52 -88 l-65 -62 -3 129 c-4 180 0 186 65
102z m760 -83 c-7 -84 -14 -123 -22 -123 -20 0 -93 58 -100 79 -9 29 17 72 76
125 28 26 53 45 54 44 1 -2 -3 -58 -8 -125z m-307 -289 c47 -37 87 -69 89 -70
7 -7 -31 -44 -77 -74 -84 -55 -184 -47 -264 23 l-38 32 71 78 c93 101 103 101
219 11z m334 -331 c4 -43 9 -97 13 -120 8 -67 -13 -65 -106 9 -44 34 -80 65
-80 68 -1 6 151 118 160 119 4 1 10 -34 13 -76z m-789 17 c41 -28 75 -52 75
-55 0 -5 -147 -125 -154 -125 -3 0 -6 52 -6 115 0 63 2 115 5 115 3 0 39 -23
80 -50z m452 -311 l85 -62 -44 -44 c-88 -91 -146 -95 -259 -18 -38 26 -69 51
-69 55 0 11 171 130 187 130 8 0 53 -28 100 -61z m-476 -320 c35 -28 64 -55
64 -61 0 -17 -138 -98 -151 -87 -18 15 0 199 19 199 3 0 33 -23 68 -51z m832
38 c15 -10 17 -27 15 -115 l-3 -102 -90 55 c-49 30 -91 59 -92 63 -3 10 126
112 141 112 7 0 20 -6 29 -13z m-396 -322 c20 -9 56 -32 80 -51 42 -34 43 -37
28 -54 -9 -10 -38 -28 -63 -40 -37 -18 -60 -21 -118 -18 -62 3 -78 8 -123 38
l-52 35 28 23 c37 30 141 82 165 82 10 0 35 -7 55 -15z m452 -309 c7 -9 11
-42 9 -88 l-3 -75 -98 45 c-63 30 -97 50 -95 59 3 16 122 72 154 73 12 0 27
-6 33 -14z m-921 -23 c98 -23 97 -39 -10 -87 -49 -22 -85 -33 -90 -28 -10 10
10 132 21 132 3 0 39 -7 79 -17z m456 -307 c33 -17 61 -37 63 -43 6 -17 -98
-56 -163 -61 -62 -4 -99 7 -151 48 l-22 17 22 21 c12 11 42 30 67 42 57 26
104 20 184 -24z m-532 -247 l62 -31 -54 -29 c-78 -40 -80 -39 -80 31 0 33 2
60 5 60 3 0 33 -14 67 -31z m1022 -15 c3 -9 6 -27 6 -41 0 -22 -3 -24 -27 -19
-96 24 -101 26 -96 46 5 18 22 23 89 28 12 1 25 -5 28 -14z"/>
</g>
</svg>
