<?xml version="1.0" standalone="no"?>
<!DOCTYPE svg PUBLIC "-//W3C//DTD SVG 20010904//EN"
 "http://www.w3.org/TR/2001/REC-SVG-20010904/DTD/svg10.dtd">
<svg version="1.0" xmlns="http://www.w3.org/2000/svg"
 width="935.000000pt" height="1280.000000pt" viewBox="0 0 935.000000 1280.000000"
 preserveAspectRatio="xMidYMid meet">
<metadata>
Created by potrace 1.15, written by Peter Selinger 2001-2017
</metadata>
<g transform="translate(0.000000,1280.000000) scale(0.100000,-0.100000)"
fill="#000000" stroke="none">
<path d="M4310 12789 c-998 -40 -2003 -197 -2890 -450 -266 -76 -430 -130
-430 -140 0 -6 12 -52 27 -102 27 -88 28 -102 27 -292 0 -110 -6 -235 -12
-278 -7 -43 -12 -169 -12 -280 -1 -797 -62 -1740 -170 -2607 -67 -534 -102
-1103 -160 -2560 -42 -1054 -82 -1616 -155 -2190 -97 -754 -267 -1426 -493
-1947 -46 -107 -43 -132 21 -165 23 -11 204 -111 402 -221 856 -475 1251 -648
1677 -734 126 -25 133 -25 182 -10 268 84 594 71 1071 -43 304 -73 466 -123
1475 -455 627 -206 694 -225 960 -264 252 -37 396 -46 740 -45 388 0 704 23
1090 79 58 8 247 22 420 30 339 16 432 26 580 57 231 49 444 160 614 319 36
33 68 68 71 78 3 10 -24 206 -60 437 -216 1386 -218 1401 -236 2627 -9 641 -8
740 5 820 129 771 138 2542 20 3872 -138 1562 -431 2715 -849 3345 -35 52
-111 151 -170 220 -151 177 -200 267 -260 480 -15 52 -30 98 -34 102 -11 12
-437 99 -726 148 -874 147 -1817 206 -2725 169z"/>
</g>
</svg>
