<?xml version="1.0" standalone="no"?>
<!DOCTYPE svg PUBLIC "-//W3C//DTD SVG 20010904//EN"
 "http://www.w3.org/TR/2001/REC-SVG-20010904/DTD/svg10.dtd">
<svg version="1.0" xmlns="http://www.w3.org/2000/svg"
 width="1280.000000pt" height="926.000000pt" viewBox="0 0 1280.000000 926.000000"
 preserveAspectRatio="xMidYMid meet">
<metadata>
Created by potrace 1.15, written by Peter Selinger 2001-2017
</metadata>
<g transform="translate(0.000000,926.000000) scale(0.100000,-0.100000)"
fill="#000000" stroke="none">
<path d="M4985 9243 c-409 -49 -754 -185 -1063 -419 -95 -72 -315 -274 -440
-404 -127 -131 -281 -350 -435 -617 -224 -386 -367 -681 -852 -1748 -95 -209
-202 -442 -239 -518 l-65 -139 -43 7 c-64 11 -357 95 -678 195 -576 179 -807
231 -960 215 -125 -13 -182 -54 -201 -144 -22 -107 8 -390 66 -616 139 -542
393 -921 717 -1069 40 -18 179 -66 308 -105 273 -84 382 -118 770 -246 1273
-419 2308 -818 4248 -1636 301 -127 644 -272 762 -321 118 -49 343 -151 500
-226 1074 -511 1943 -858 2760 -1101 759 -225 1491 -350 2058 -351 286 0 499
83 575 225 17 32 22 57 21 120 0 71 -4 89 -37 159 -51 108 -117 194 -249 322
-371 358 -984 678 -1603 834 -128 33 -150 41 -148 57 18 158 24 250 22 376 -1
84 3 202 9 262 15 142 38 483 54 800 21 399 17 1979 -5 2410 -53 1026 -126
1608 -236 1891 -36 91 -39 95 -106 150 -125 103 -297 195 -474 254 -145 49
-300 79 -652 129 -242 34 -283 42 -335 69 -111 56 -504 232 -732 328 -314 133
-415 173 -1059 423 -287 111 -826 289 -928 306 -11 1 -80 17 -153 34 -414 98
-853 133 -1177 94z"/>
</g>
</svg>
