<?xml version="1.0" standalone="no"?>
<!DOCTYPE svg PUBLIC "-//W3C//DTD SVG 20010904//EN"
 "http://www.w3.org/TR/2001/REC-SVG-20010904/DTD/svg10.dtd">
<svg version="1.0" xmlns="http://www.w3.org/2000/svg"
 width="1280.000000pt" height="640.000000pt" viewBox="0 0 1280.000000 640.000000"
 preserveAspectRatio="xMidYMid meet">
<metadata>
Created by potrace 1.15, written by Peter Selinger 2001-2017
</metadata>
<g transform="translate(0.000000,640.000000) scale(0.100000,-0.100000)"
fill="#000000" stroke="none">
<path d="M6165 5023 c-381 -31 -588 -64 -905 -143 -719 -180 -1274 -525 -1519
-944 -38 -65 -63 -124 -127 -302 l-37 -102 -76 -7 c-1434 -128 -2584 -360
-3124 -631 -171 -86 -290 -180 -346 -274 -33 -57 -36 -155 -7 -210 30 -57 155
-171 245 -224 715 -419 2625 -718 5096 -797 425 -14 1645 -14 2070 0 2471 79
4381 378 5096 797 90 53 215 167 245 224 29 55 26 153 -7 210 -33 56 -127 146
-201 194 -448 286 -1502 530 -2930 677 l-217 23 -26 80 c-40 125 -165 372
-233 461 -71 95 -228 249 -332 327 -457 343 -1125 563 -1920 633 -147 13 -623
18 -745 8z"/>
</g>
</svg>
