<?xml version="1.0" standalone="no"?>
<!DOCTYPE svg PUBLIC "-//W3C//DTD SVG 20010904//EN"
 "http://www.w3.org/TR/2001/REC-SVG-20010904/DTD/svg10.dtd">
<svg version="1.0" xmlns="http://www.w3.org/2000/svg"
 width="1280.000000pt" height="940.000000pt" viewBox="0 0 1280.000000 940.000000"
 preserveAspectRatio="xMidYMid meet">
<metadata>
Created by potrace 1.15, written by Peter Selinger 2001-2017
</metadata>
<g transform="translate(0.000000,940.000000) scale(0.100000,-0.100000)"
fill="#000000" stroke="none">
<path d="M4268 9390 c-148 -17 -383 -62 -413 -79 -37 -21 -65 -74 -65 -123 0
-35 -2 -38 -27 -38 -54 0 -260 -44 -362 -77 -58 -18 -163 -47 -235 -64 -138
-32 -155 -39 -197 -74 -15 -12 -64 -37 -110 -55 -136 -53 -592 -281 -757 -379
-587 -346 -1073 -757 -1369 -1158 -210 -284 -274 -479 -333 -1023 -44 -405
-61 -501 -140 -795 -266 -991 -296 -1219 -226 -1703 28 -188 76 -437 128 -656
l32 -139 421 7 c231 4 634 11 895 16 261 5 559 10 661 10 l185 0 369 -383
c1823 -1889 2113 -2172 2442 -2376 267 -165 411 -201 1063 -260 63 -6 167 -16
230 -23 154 -16 658 -15 780 0 427 56 709 140 1060 317 224 112 242 123 978
584 1009 632 1816 956 3087 1241 263 59 372 97 410 141 30 36 31 54 6 95 -44
72 -216 170 -711 404 -354 167 -931 457 -1105 555 -447 251 -887 547 -1190
799 -56 47 -91 68 -117 73 -35 5 -37 7 -25 27 18 31 14 370 -7 536 -72 586
-241 1218 -467 1746 -71 169 -222 457 -313 604 -159 253 -311 437 -582 700
-540 524 -1126 916 -1724 1153 -521 206 -972 274 -1415 213 -104 -14 -115 -14
-115 9 0 22 -49 73 -95 100 -74 44 -239 75 -415 80 -85 2 -189 0 -232 -5z
m2143 -5606 c-18 -8 -38 -13 -45 -11 -6 3 5 9 24 15 50 15 60 13 21 -4z"/>
</g>
</svg>
