<?xml version="1.0" standalone="no"?>
<!DOCTYPE svg PUBLIC "-//W3C//DTD SVG 20010904//EN"
 "http://www.w3.org/TR/2001/REC-SVG-20010904/DTD/svg10.dtd">
<svg version="1.0" xmlns="http://www.w3.org/2000/svg"
 width="1280.000000pt" height="1082.000000pt" viewBox="0 0 1280.000000 1082.000000"
 preserveAspectRatio="xMidYMid meet">
<metadata>
Created by potrace 1.15, written by Peter Selinger 2001-2017
</metadata>
<g transform="translate(0.000000,1082.000000) scale(0.100000,-0.100000)"
fill="#000000" stroke="none">
<path d="M7225 10813 c-176 -22 -735 -199 -913 -289 -200 -100 -325 -211 -441
-390 -78 -119 -94 -138 -170 -195 -439 -330 -670 -851 -611 -1374 22 -192 82
-401 160 -555 23 -45 40 -83 38 -84 -2 -1 -37 -17 -78 -35 -292 -127 -692
-366 -1380 -824 -451 -300 -714 -510 -1001 -796 -328 -329 -477 -533 -729
-1001 -228 -423 -261 -484 -285 -510 -31 -34 -209 -364 -309 -572 -94 -194
-208 -453 -294 -669 l-58 -144 -108 -55 c-174 -89 -246 -148 -325 -265 -343
-508 -561 -942 -654 -1305 -50 -194 -61 -283 -61 -485 1 -286 39 -438 157
-618 162 -249 442 -446 809 -567 133 -45 274 -79 324 -80 16 0 86 23 155 51
742 304 1863 505 3229 579 577 31 2434 66 2995 56 377 -7 485 -11 1540 -51
358 -14 830 -32 1050 -40 220 -9 549 -22 730 -29 219 -10 449 -13 685 -9 262
4 398 2 520 -8 232 -20 280 -17 356 21 133 65 204 200 234 440 52 430 -128
1353 -397 2040 -78 198 -172 389 -221 449 -45 55 -147 122 -249 162 -43 17
-82 34 -86 38 -4 4 -21 59 -37 122 -58 227 -122 419 -268 804 -169 443 -313
757 -437 955 -113 178 -429 589 -632 820 -220 251 -438 423 -854 678 -399 243
-979 521 -1449 694 -74 27 -136 51 -138 53 -2 2 17 39 43 84 89 154 160 360
190 556 23 146 16 419 -13 552 -39 172 -103 336 -184 474 l-45 76 61 6 c74 8
346 60 346 67 0 3 -86 50 -190 104 -116 61 -186 103 -178 107 7 3 102 28 211
54 l197 47 0 63 c0 46 -4 64 -15 69 -21 8 -197 24 -345 31 -69 3 -177 13 -239
22 -63 8 -142 13 -175 10 l-61 -5 182 88 c125 61 208 108 263 150 44 35 80 65
80 68 0 2 -53 2 -117 -2 -92 -5 -129 -3 -167 9 -63 19 -226 20 -327 0 -42 -8
-157 -34 -255 -59 -99 -24 -201 -47 -229 -51 -27 -4 -100 -18 -162 -31 -79
-18 -135 -24 -190 -22 l-77 3 105 61 c57 34 214 124 349 199 135 75 246 138
247 139 2 2 -7 30 -18 64 -15 44 -26 62 -37 61 -10 -1 -30 -4 -47 -6z"/>
</g>
</svg>
