<?xml version="1.0" standalone="no"?>
<!DOCTYPE svg PUBLIC "-//W3C//DTD SVG 20010904//EN"
 "http://www.w3.org/TR/2001/REC-SVG-20010904/DTD/svg10.dtd">
<svg version="1.0" xmlns="http://www.w3.org/2000/svg"
 width="1280.000000pt" height="1076.000000pt" viewBox="0 0 1280.000000 1076.000000"
 preserveAspectRatio="xMidYMid meet">
<metadata>
Created by potrace 1.15, written by Peter Selinger 2001-2017
</metadata>
<g transform="translate(0.000000,1076.000000) scale(0.100000,-0.100000)"
fill="#000000" stroke="none">
<path d="M4110 10754 c-200 -13 -379 -28 -535 -45 -1391 -155 -2394 -653
-2873 -1425 -77 -123 -143 -261 -225 -469 -443 -1118 -575 -2121 -401 -3045
103 -551 324 -1076 665 -1580 416 -616 933 -1070 1551 -1364 405 -193 836
-310 1293 -351 280 -25 264 -21 555 -153 146 -66 353 -159 460 -207 739 -331
971 -388 2020 -500 372 -39 508 -62 650 -107 284 -91 512 -204 1050 -521 372
-219 510 -297 666 -375 375 -188 700 -281 980 -282 l91 0 5 -67 c6 -85 32
-137 96 -195 50 -45 105 -68 158 -68 38 1 103 31 131 61 20 22 260 470 1850
3455 264 495 485 916 491 934 34 95 -20 203 -122 245 -68 29 -204 14 -253 -27
-7 -6 -15 -9 -17 -7 -2 2 -27 99 -56 214 -79 314 -374 1343 -547 1905 -158
517 -186 611 -238 800 -132 487 -178 751 -195 1115 -34 751 -127 1158 -311
1359 -109 119 -225 154 -418 126 -547 -79 -928 -326 -1136 -737 -135 -269
-193 -590 -182 -1012 11 -448 96 -918 283 -1563 30 -105 53 -192 52 -194 -9
-9 -384 450 -728 891 -85 109 -203 253 -261 319 -313 357 -664 625 -1230 941
-123 68 -131 74 -240 195 -248 276 -601 610 -884 836 -616 493 -1199 791
-1725 881 -83 14 -360 24 -470 17z"/>
</g>
</svg>
