<?xml version="1.0" standalone="no"?>
<!DOCTYPE svg PUBLIC "-//W3C//DTD SVG 20010904//EN"
 "http://www.w3.org/TR/2001/REC-SVG-20010904/DTD/svg10.dtd">
<svg version="1.0" xmlns="http://www.w3.org/2000/svg"
 width="1280.000000pt" height="1152.000000pt" viewBox="0 0 1280.000000 1152.000000"
 preserveAspectRatio="xMidYMid meet">
<metadata>
Created by potrace 1.15, written by Peter Selinger 2001-2017
</metadata>
<g transform="translate(0.000000,1152.000000) scale(0.100000,-0.100000)"
fill="#000000" stroke="none">
<path d="M5107 11026 c-241 -272 -445 -496 -455 -499 -9 -3 -134 -51 -277
-107 -468 -183 -1171 -443 -1765 -653 -220 -78 -267 -98 -278 -118 -6 -13 -81
-199 -166 -414 -646 -1636 -1291 -2849 -2063 -3877 -57 -76 -103 -147 -103
-158 0 -23 83 -148 195 -296 449 -589 1021 -1035 1729 -1350 l109 -48 64 69
c349 382 621 891 793 1486 49 169 108 406 116 471 4 27 8 47 10 45 3 -3 -115
-4644 -129 -5053 l-4 -121 404 -201 403 -202 2858 0 2857 0 290 75 c160 41
398 103 530 137 132 34 244 64 248 68 4 4 -4 197 -18 431 -25 423 -79 1355
-135 2329 -16 283 -35 591 -41 683 -6 93 -9 170 -7 172 2 2 84 -98 183 -221
99 -124 185 -230 191 -235 8 -7 141 57 415 199 649 335 818 438 1067 647 306
258 533 577 648 911 l28 82 -91 188 c-50 104 -466 956 -923 1894 -457 938
-910 1867 -1007 2065 l-175 361 -1016 339 -1015 340 -356 525 -356 525 -1161
3 -1160 2 -437 -494z"/>
</g>
</svg>
