<?xml version="1.0" standalone="no"?>
<!DOCTYPE svg PUBLIC "-//W3C//DTD SVG 20010904//EN"
 "http://www.w3.org/TR/2001/REC-SVG-20010904/DTD/svg10.dtd">
<svg version="1.0" xmlns="http://www.w3.org/2000/svg"
 width="1280.000000pt" height="640.000000pt" viewBox="0 0 1280.000000 640.000000"
 preserveAspectRatio="xMidYMid meet">
<metadata>
Created by potrace 1.15, written by Peter Selinger 2001-2017
</metadata>
<g transform="translate(0.000000,640.000000) scale(0.100000,-0.100000)"
fill="#000000" stroke="none">
<path d="M935 6239 c-354 -53 -612 -357 -686 -809 -13 -81 -12 -382 2 -544 13
-150 34 -263 109 -581 79 -332 100 -460 107 -641 5 -131 3 -163 -16 -253 -32
-148 -84 -292 -214 -586 -172 -390 -222 -553 -234 -760 -8 -136 9 -231 54
-317 40 -77 128 -165 201 -202 123 -62 312 -92 512 -82 63 4 234 11 380 16
688 26 1203 96 3255 440 57 9 61 9 111 -22 121 -73 215 -178 439 -488 77 -107
154 -200 219 -265 161 -160 253 -203 456 -215 69 -4 159 -16 200 -26 96 -22
352 -25 455 -5 390 78 739 284 1316 778 14 11 30 4 120 -53 964 -614 2166
-1057 3809 -1405 320 -68 343 -69 448 -19 170 80 269 285 312 646 5 43 16 261
25 484 21 566 33 657 175 1265 32 138 63 284 70 325 7 41 41 222 76 403 134
686 158 863 158 1202 1 350 -19 469 -110 634 -122 221 -333 386 -609 475 -250
81 -547 85 -785 11 -47 -15 -222 -55 -390 -89 -900 -186 -1731 -438 -2827
-855 -117 -45 -214 -81 -216 -81 -3 0 -7 46 -10 103 -27 516 -494 954 -1157
1082 -180 35 -489 30 -715 -11 -380 -69 -646 -249 -755 -511 -90 -216 -216
-329 -399 -355 -66 -10 -88 -9 -152 6 -95 23 -186 72 -270 147 -60 53 -99 73
-420 220 -909 414 -1306 575 -1774 718 -359 109 -771 193 -1060 215 -44 4 -96
8 -115 10 -19 2 -62 0 -95 -5z"/>
</g>
</svg>
