<?xml version="1.0" standalone="no"?>
<!DOCTYPE svg PUBLIC "-//W3C//DTD SVG 20010904//EN"
 "http://www.w3.org/TR/2001/REC-SVG-20010904/DTD/svg10.dtd">
<svg version="1.0" xmlns="http://www.w3.org/2000/svg"
 width="640.000000pt" height="1280.000000pt" viewBox="0 0 640.000000 1280.000000"
 preserveAspectRatio="xMidYMid meet">
<metadata>
Created by potrace 1.15, written by Peter Selinger 2001-2017
</metadata>
<g transform="translate(0.000000,1280.000000) scale(0.100000,-0.100000)"
fill="#000000" stroke="none">
<path d="M4445 12785 c-99 -8 -260 -19 -357 -26 -158 -11 -178 -14 -178 -29 0
-15 -12 -19 -82 -23 -96 -5 -685 -62 -803 -78 -97 -12 -150 -23 -190 -39 -25
-10 -84 -6 -366 29 -184 23 -366 50 -405 60 -61 15 -69 20 -72 42 l-3 26 -217
21 c-236 24 -395 28 -456 11 -22 -6 -58 -29 -83 -52 l-43 -42 -34 -180 c-23
-121 -57 -254 -105 -405 -94 -298 -112 -381 -110 -485 1 -68 -2 -88 -18 -112
-10 -15 -30 -76 -42 -134 -23 -105 -23 -107 -12 -470 15 -486 54 -896 171
-1804 144 -1113 259 -1791 401 -2378 135 -556 165 -810 179 -1507 28 -1405 86
-2197 330 -4445 35 -323 33 -298 20 -290 -13 8 -14 11 19 -101 16 -55 34 -118
40 -140 9 -33 23 -51 67 -84 96 -72 165 -88 311 -70 192 24 361 78 411 132 41
45 67 200 37 222 -33 24 -37 127 -31 681 9 789 41 2034 96 3740 22 685 56
1658 65 1860 3 72 15 362 25 645 52 1345 117 2640 133 2656 2 2 7 -121 11
-273 8 -334 32 -1288 46 -1828 29 -1140 35 -1557 35 -2590 0 -1089 -1 -1139
-23 -1390 -39 -451 -43 -550 -46 -1192 -3 -640 -4 -667 -61 -1583 -33 -533
-53 -794 -65 -853 -15 -70 -12 -134 6 -173 9 -20 45 -55 86 -85 l69 -52 167
27 c395 63 503 100 547 186 18 34 20 144 5 254 -11 74 -9 86 129 833 157 846
193 1051 250 1428 88 577 143 1055 196 1710 63 775 157 1454 346 2495 48 261
137 727 314 1630 43 222 153 831 199 1105 81 484 124 839 167 1400 15 203 2
414 -28 447 -18 20 -25 62 -57 373 -20 193 -39 375 -41 405 -3 30 -9 64 -15
75 -5 11 -21 65 -35 120 -33 123 -62 175 -122 216 -132 91 -349 114 -778 84z"/>
</g>
</svg>
