<?xml version="1.0" standalone="no"?>
<!DOCTYPE svg PUBLIC "-//W3C//DTD SVG 20010904//EN"
 "http://www.w3.org/TR/2001/REC-SVG-20010904/DTD/svg10.dtd">
<svg version="1.0" xmlns="http://www.w3.org/2000/svg"
 width="1236.000000pt" height="1280.000000pt" viewBox="0 0 1236.000000 1280.000000"
 preserveAspectRatio="xMidYMid meet">
<metadata>
Created by potrace 1.15, written by Peter Selinger 2001-2017
</metadata>
<g transform="translate(0.000000,1280.000000) scale(0.100000,-0.100000)"
fill="#000000" stroke="none">
<path d="M3580 12785 c-80 -13 -156 -52 -345 -178 -176 -117 -220 -153 -463
-385 -282 -269 -366 -330 -639 -466 -209 -104 -385 -221 -851 -564 -447 -329
-564 -411 -686 -479 -301 -167 -403 -255 -460 -399 -15 -38 -42 -100 -60 -139
-54 -114 -65 -143 -72 -185 -10 -63 13 -198 46 -266 33 -69 124 -172 198 -224
l49 -35 28 -115 c53 -220 134 -506 201 -710 180 -554 277 -727 822 -1465 118
-159 274 -380 348 -490 73 -110 173 -249 221 -310 48 -60 252 -279 453 -485
664 -683 784 -797 1048 -992 169 -125 267 -219 497 -478 174 -195 323 -340
615 -596 346 -303 652 -525 889 -644 417 -209 715 -438 1014 -780 142 -162
197 -219 232 -238 24 -13 66 -17 217 -19 175 -2 189 -4 209 -24 18 -18 30 -20
100 -17 l79 3 280 -465 281 -465 467 -297 c257 -163 595 -375 751 -472 l284
-175 22 -66 c25 -74 62 -119 120 -146 95 -44 220 -8 429 124 45 28 102 58 127
67 40 14 91 65 449 450 222 239 432 463 466 497 73 73 107 137 112 213 6 83
-31 146 -137 232 -177 144 -774 703 -1052 984 -216 220 -296 313 -601 704
-255 326 -334 420 -496 583 -192 195 -262 248 -615 468 -233 146 -329 214
-424 303 -137 127 -199 224 -336 527 -153 336 -212 424 -437 650 -279 279
-720 634 -1243 1000 l-177 125 -542 604 c-297 333 -555 628 -573 655 -61 96
-105 262 -88 337 l8 37 145 -93 c211 -136 374 -228 745 -419 332 -170 449
-235 670 -366 586 -350 1155 -505 1825 -499 191 1 279 -10 351 -48 49 -25 107
-82 144 -144 61 -100 149 -140 311 -140 50 0 131 7 180 16 49 9 111 16 138 17
45 0 53 -4 78 -34 39 -46 118 -204 161 -319 41 -112 73 -251 121 -527 82 -466
144 -639 300 -829 146 -178 228 -327 366 -664 93 -226 154 -354 272 -570 52
-96 145 -272 207 -391 l111 -217 98 -12 c125 -16 302 -9 362 14 25 10 98 26
163 37 395 63 731 202 1067 440 113 80 152 119 179 179 37 81 20 175 -47 271
-67 96 -343 747 -484 1144 -131 368 -155 480 -203 951 -67 649 -110 785 -433
1364 -69 124 -153 286 -188 361 -190 413 -252 510 -463 719 -332 331 -702 584
-1026 705 -55 20 -163 50 -240 67 -240 50 -370 99 -920 346 -110 49 -283 119
-384 156 -993 361 -1631 632 -1893 805 -116 78 -206 166 -372 369 -165 201
-238 258 -549 426 -175 95 -288 164 -679 415 l-207 133 -35 75 c-60 125 -129
213 -271 346 -94 87 -143 126 -165 131 -46 9 -113 6 -200 -9z"/>
</g>
</svg>
