<?xml version="1.0" standalone="no"?>
<!DOCTYPE svg PUBLIC "-//W3C//DTD SVG 20010904//EN"
 "http://www.w3.org/TR/2001/REC-SVG-20010904/DTD/svg10.dtd">
<svg version="1.0" xmlns="http://www.w3.org/2000/svg"
 width="682.000000pt" height="1280.000000pt" viewBox="0 0 682.000000 1280.000000"
 preserveAspectRatio="xMidYMid meet">
<metadata>
Created by potrace 1.15, written by Peter Selinger 2001-2017
</metadata>
<g transform="translate(0.000000,1280.000000) scale(0.100000,-0.100000)"
fill="#000000" stroke="none">
<path d="M2487 12789 c-123 -29 -244 -128 -300 -246 -30 -64 -32 -74 -32 -183
0 -108 2 -119 32 -182 53 -111 149 -199 259 -234 27 -9 56 -18 64 -21 8 -2
-39 -30 -107 -63 -123 -59 -262 -143 -340 -206 l-42 -34 -54 14 c-184 48 -591
64 -796 32 -381 -59 -698 -216 -924 -456 -139 -147 -240 -316 -241 -404 -1
-44 2 -51 38 -82 161 -139 669 -181 1023 -84 109 30 218 74 297 120 37 22 69
40 71 40 1 0 -8 -29 -21 -64 -75 -206 -114 -437 -121 -706 -5 -177 -3 -221 15
-325 94 -547 516 -1117 1116 -1505 l115 -75 0 -360 c1 -710 -48 -1283 -154
-1810 -54 -266 -29 -229 -218 -323 -415 -206 -754 -487 -1023 -849 -396 -533
-592 -1183 -554 -1843 12 -202 34 -351 80 -535 150 -595 488 -1127 962 -1509
l86 -70 -39 -57 c-96 -140 -142 -282 -143 -444 -1 -129 14 -169 82 -222 104
-79 200 -94 662 -100 720 -10 933 36 996 215 l17 48 137 1 136 1 13 -43 c39
-132 178 -193 495 -216 172 -13 842 -6 941 10 266 43 349 158 300 416 -23 122
-65 227 -131 325 -44 67 -53 85 -42 95 7 6 52 44 100 84 48 40 143 131 211
201 418 433 672 962 764 1585 24 166 24 572 0 735 -81 542 -278 1003 -603
1410 -94 117 -319 341 -440 437 -211 167 -500 335 -721 418 -5 2 -65 238 -92
365 -106 497 -171 1087 -196 1775 l-7 180 138 83 c633 377 1096 958 1209 1517
63 311 24 747 -97 1078 -15 42 -26 77 -24 77 2 0 35 -18 72 -40 79 -46 188
-90 297 -120 354 -97 862 -55 1023 84 36 31 39 38 38 82 -1 88 -107 266 -243
408 -322 335 -815 505 -1357 466 -172 -12 -344 -36 -388 -54 -30 -12 -34 -10
-110 47 -97 71 -239 156 -341 202 -68 31 -95 55 -62 55 7 0 45 16 85 35 164
78 264 249 249 424 -18 221 -187 390 -407 408 -119 10 -254 -40 -340 -127
-162 -161 -172 -425 -23 -600 l37 -43 -34 7 c-256 52 -686 52 -948 0 -42 -8
-42 7 -1 54 40 45 74 121 90 201 15 77 0 178 -37 258 -33 69 -118 161 -181
196 -94 51 -219 69 -316 46z"/>
</g>
</svg>
