<?xml version="1.0" standalone="no"?>
<!DOCTYPE svg PUBLIC "-//W3C//DTD SVG 20010904//EN"
 "http://www.w3.org/TR/2001/REC-SVG-20010904/DTD/svg10.dtd">
<svg version="1.0" xmlns="http://www.w3.org/2000/svg"
 width="892.000000pt" height="1280.000000pt" viewBox="0 0 892.000000 1280.000000"
 preserveAspectRatio="xMidYMid meet">
<metadata>
Created by potrace 1.15, written by Peter Selinger 2001-2017
</metadata>
<g transform="translate(0.000000,1280.000000) scale(0.100000,-0.100000)"
fill="#000000" stroke="none">
<path d="M3805 12789 c-508 -63 -905 -205 -1212 -436 -298 -223 -530 -553
-712 -1010 -54 -135 -94 -254 -303 -893 -151 -462 -255 -685 -463 -995 -77
-115 -179 -266 -227 -335 -151 -221 -249 -395 -344 -613 -23 -54 -61 -131 -85
-170 -85 -146 -250 -405 -319 -502 -66 -93 -71 -103 -67 -142 8 -73 55 -147
185 -291 179 -198 212 -278 178 -425 -22 -94 -62 -168 -189 -352 -139 -202
-193 -302 -213 -396 -24 -116 -4 -217 73 -379 25 -52 50 -105 56 -117 15 -33
163 -187 174 -180 5 3 40 -19 79 -50 38 -30 159 -124 269 -208 226 -172 326
-259 414 -359 156 -177 218 -329 208 -511 -6 -113 -31 -210 -112 -434 -113
-312 -119 -335 -119 -501 -1 -138 1 -151 37 -280 90 -322 158 -496 260 -668
77 -130 162 -236 470 -591 218 -250 247 -287 247 -317 0 -19 5 -34 10 -34 6 0
10 7 10 15 0 8 3 15 8 14 7 0 19 -14 191 -234 202 -257 489 -656 721 -1003
128 -191 127 -191 199 -134 52 42 86 113 136 287 48 165 80 243 118 283 20 21
28 23 78 17 l56 -7 37 43 c73 85 82 201 41 482 -40 267 -31 391 33 463 l27 31
525 16 c289 10 561 19 605 22 l81 5 26 -41 c15 -23 32 -66 38 -95 16 -75 10
-115 -60 -436 -28 -126 -28 -249 -1 -331 27 -80 68 -148 181 -302 147 -201
170 -251 185 -405 24 -249 61 -298 214 -287 235 16 392 176 530 540 23 59 80
237 127 395 115 384 155 504 223 653 137 300 236 396 666 639 232 131 306 181
393 268 165 164 235 358 267 735 26 308 44 473 60 551 17 81 53 191 54 164 1
-10 6 -18 11 -18 6 0 10 21 10 47 0 99 143 322 566 883 227 301 333 472 422
675 l43 100 -11 125 c-29 328 -78 704 -135 1025 -22 125 -33 210 -29 234 5 30
-7 82 -54 237 -33 110 -72 244 -87 299 -69 262 -151 520 -256 806 -62 171
-109 338 -170 604 -12 55 -24 94 -27 87 -11 -34 -20 -1 -25 101 -31 548 -189
1242 -409 1792 -292 732 -701 1282 -1169 1574 -243 151 -480 225 -764 238
-113 5 -151 3 -195 -10 -142 -42 -202 -163 -260 -527 -46 -288 -78 -403 -139
-497 -57 -88 -80 -101 -203 -114 -132 -14 -436 -14 -603 0 l-130 11 -37 41
c-80 88 -98 194 -98 573 0 150 -5 298 -11 330 -21 114 -65 181 -144 217 -43
20 -55 21 -160 8z"/>
</g>
</svg>
