<?xml version="1.0" standalone="no"?>
<!DOCTYPE svg PUBLIC "-//W3C//DTD SVG 20010904//EN"
 "http://www.w3.org/TR/2001/REC-SVG-20010904/DTD/svg10.dtd">
<svg version="1.0" xmlns="http://www.w3.org/2000/svg"
 width="1280.000000pt" height="780.000000pt" viewBox="0 0 1280.000000 780.000000"
 preserveAspectRatio="xMidYMid meet">
<metadata>
Created by potrace 1.15, written by Peter Selinger 2001-2017
</metadata>
<g transform="translate(0.000000,780.000000) scale(0.100000,-0.100000)"
fill="#000000" stroke="none">
<path d="M6325 7789 c-275 -29 -572 -135 -796 -285 -158 -106 -344 -250 -438
-340 -362 -344 -616 -819 -725 -1354 -44 -214 -56 -355 -63 -716 l-6 -341 -86
-12 c-144 -20 -446 -71 -631 -106 -1279 -247 -2299 -640 -2940 -1134 -116 -89
-345 -319 -409 -411 -235 -335 -287 -630 -174 -973 65 -196 176 -362 377 -563
251 -250 570 -461 1001 -662 2501 -1164 7160 -1191 9750 -55 635 278 1093 611
1347 978 77 111 140 245 230 485 24 67 45 252 31 284 -6 11 -18 55 -28 96 -49
206 -167 393 -385 610 -632 632 -1970 1165 -3568 1421 -141 23 -263 43 -269
45 -10 3 -13 89 -13 388 0 211 -5 430 -10 487 -60 609 -298 1156 -675 1556
-412 439 -971 660 -1520 602z"/>
</g>
</svg>
