<?xml version="1.0" standalone="no"?>
<!DOCTYPE svg PUBLIC "-//W3C//DTD SVG 20010904//EN"
 "http://www.w3.org/TR/2001/REC-SVG-20010904/DTD/svg10.dtd">
<svg version="1.0" xmlns="http://www.w3.org/2000/svg"
 width="1280.000000pt" height="843.000000pt" viewBox="0 0 1280.000000 843.000000"
 preserveAspectRatio="xMidYMid meet">
<metadata>
Created by potrace 1.15, written by Peter Selinger 2001-2017
</metadata>
<g transform="translate(0.000000,843.000000) scale(0.100000,-0.100000)"
fill="#000000" stroke="none">
<path d="M10219 7229 c-1253 -960 -1576 -1212 -1669 -1302 -404 -395 -1001
-888 -2046 -1693 -28 -21 -111 -94 -184 -162 -345 -318 -671 -529 -1077 -696
-471 -193 -1066 -308 -1715 -333 -93 -3 -177 -11 -187 -17 -127 -72 -348 -182
-431 -215 -255 -100 -768 -242 -1305 -361 -523 -117 -863 -231 -1205 -406
-339 -173 -455 -393 -374 -707 10 -38 13 -77 9 -104 -19 -130 118 -234 525
-398 427 -172 760 -266 1608 -455 246 -54 521 -117 612 -140 254 -62 757 -143
1160 -185 618 -64 1507 -73 1775 -16 386 80 870 340 1245 666 182 159 544 574
938 1074 749 952 1148 1354 1680 1689 165 104 210 121 317 121 101 1 181 -26
293 -98 45 -29 86 -50 91 -47 25 16 111 -159 146 -296 51 -201 114 -722 170
-1403 32 -380 76 -1065 82 -1272 l6 -213 219 0 218 0 -6 173 c-4 94 -9 175
-13 179 -10 12 52 1021 74 1193 46 361 134 698 295 1130 43 116 99 269 125
340 119 329 264 603 439 830 125 161 316 483 498 836 57 111 113 220 125 243
166 313 184 705 57 1226 -159 656 -297 1055 -476 1375 -152 272 -404 629 -447
632 -11 1 -649 -481 -1572 -1188z"/>
</g>
</svg>
