<?xml version="1.0" standalone="no"?>
<!DOCTYPE svg PUBLIC "-//W3C//DTD SVG 20010904//EN"
 "http://www.w3.org/TR/2001/REC-SVG-20010904/DTD/svg10.dtd">
<svg version="1.0" xmlns="http://www.w3.org/2000/svg"
 width="1280.000000pt" height="750.000000pt" viewBox="0 0 1280.000000 750.000000"
 preserveAspectRatio="xMidYMid meet">
<metadata>
Created by potrace 1.15, written by Peter Selinger 2001-2017
</metadata>
<g transform="translate(0.000000,750.000000) scale(0.100000,-0.100000)"
fill="#000000" stroke="none">
<path d="M3535 7476 c-138 -64 -296 -264 -312 -394 l-5 -49 -242 -7 c-565 -16
-1391 27 -2089 110 -120 14 -220 24 -222 22 -2 -1 1 -66 5 -143 12 -195 12
-937 0 -1190 -45 -933 -183 -1925 -380 -2720 -75 -304 -88 -384 -101 -630 -10
-194 3 -823 18 -884 6 -24 5 -24 -50 -18 -89 9 -86 14 -108 -239 -41 -497 -60
-946 -42 -1014 7 -27 22 -44 70 -76 260 -176 771 -240 1898 -238 604 1 686 3
2240 54 1390 46 1581 50 2150 50 1031 0 2000 25 2594 65 536 37 875 77 1346
160 1119 197 2086 462 2368 649 106 71 122 114 121 326 -2 198 -38 425 -108
665 -36 121 -50 149 -140 274 -46 64 -89 130 -97 146 -15 30 -40 37 -79 22
-10 -3 -32 15 -65 56 -112 136 -249 209 -455 242 -225 35 -726 36 -1115 0
-235 -21 -210 -23 -370 19 -77 20 -201 49 -275 65 -116 26 -137 33 -153 56
-36 49 -158 94 -300 110 -65 7 -92 -5 -81 -37 5 -16 2 -19 -13 -14 -10 3 -60
15 -111 26 -90 21 -93 23 -117 63 -57 98 -188 197 -322 244 -71 25 -91 28
-213 27 -120 0 -142 -3 -200 -26 l-65 -25 -73 24 c-61 21 -81 34 -129 84 -51
53 -149 125 -195 142 -10 3 -18 12 -18 20 0 49 -175 135 -311 153 -58 8 -64
-1 -45 -65 15 -51 13 -61 -11 -61 -19 0 -303 131 -303 139 0 4 -22 32 -48 62
-26 29 -53 66 -59 80 -18 41 -67 72 -193 124 l-115 46 -16 -20 c-14 -17 -24
-20 -51 -14 -35 7 -68 27 -221 137 l-98 70 30 26 c35 28 38 47 16 89 -19 38
-104 112 -167 146 -51 28 -58 28 -149 -10 -13 -5 -42 21 -114 101 -82 91 -276
332 -298 371 -4 6 11 23 38 40 32 20 45 35 45 51 0 59 -98 199 -177 251 -49
32 -69 33 -126 4 -16 -8 -30 -13 -32 -11 -1 2 -52 72 -113 157 -89 122 -111
158 -106 177 18 71 -171 334 -240 334 -15 0 -41 29 -96 107 -41 58 -119 167
-173 242 -130 177 -138 220 -44 221 46 0 55 18 37 69 -22 64 -97 176 -155 230
-55 52 -58 53 -101 47 -40 -5 -50 -2 -93 29 -26 19 -79 49 -117 67 -41 19 -96
56 -134 91 -36 33 -87 74 -115 92 -48 31 -53 32 -110 25 -128 -17 -128 -17
-179 54 -25 35 -66 88 -92 117 -25 30 -68 87 -96 127 -37 56 -60 78 -91 93
-55 24 -82 24 -142 -5z"/>
</g>
</svg>
