<?xml version="1.0" standalone="no"?>
<!DOCTYPE svg PUBLIC "-//W3C//DTD SVG 20010904//EN"
 "http://www.w3.org/TR/2001/REC-SVG-20010904/DTD/svg10.dtd">
<svg version="1.0" xmlns="http://www.w3.org/2000/svg"
 width="1280.000000pt" height="1140.000000pt" viewBox="0 0 1280.000000 1140.000000"
 preserveAspectRatio="xMidYMid meet">
<metadata>
Created by potrace 1.15, written by Peter Selinger 2001-2017
</metadata>
<g transform="translate(0.000000,1140.000000) scale(0.100000,-0.100000)"
fill="#000000" stroke="none">
<path d="M2560 11393 c-60 -10 -153 -47 -207 -82 -76 -50 -131 -110 -238 -256
-129 -176 -173 -278 -211 -490 -19 -103 -29 -378 -16 -475 7 -57 6 -89 -5
-135 -64 -271 -93 -576 -102 -1080 -7 -389 -8 -401 -30 -443 -34 -67 -61 -186
-60 -271 0 -42 8 -146 18 -231 10 -85 18 -156 17 -157 0 0 -34 5 -75 13 -167
32 -319 44 -548 44 -460 0 -664 -49 -800 -193 -82 -87 -113 -160 -152 -367
-44 -229 -62 -412 -91 -905 -21 -371 -21 -366 -46 -605 -22 -205 -15 -338 37
-692 33 -231 41 -311 42 -438 0 -143 -2 -164 -31 -270 -44 -165 -55 -254 -55
-435 2 -268 59 -513 174 -735 44 -87 60 -108 132 -171 255 -222 500 -382 1103
-720 426 -239 394 -224 489 -224 77 0 83 2 152 43 101 61 270 121 341 122 27
0 94 -46 752 -515 256 -182 510 -362 565 -401 128 -88 208 -168 326 -324 l94
-125 212 -106 c533 -267 1238 -495 1917 -620 556 -102 1048 -142 1751 -143
427 -1 578 6 830 35 424 48 751 118 1103 236 885 294 1288 609 1393 1086 27
121 37 383 19 509 -33 243 -122 442 -262 585 l-61 61 -13 154 c-45 502 -142
784 -346 1003 -131 139 -530 454 -845 665 -76 51 -142 97 -147 101 -5 5 125 6
290 2 670 -13 1279 50 1846 192 212 53 329 98 446 172 216 136 373 302 454
480 57 126 71 202 71 373 0 218 -24 311 -173 665 -89 209 -89 210 -105 350
-31 270 -82 481 -153 637 -178 392 -550 720 -995 877 -47 16 -156 48 -243 71
-580 151 -1230 359 -1862 598 -103 38 -104 39 -133 92 -92 168 -252 292 -504
391 -33 12 -76 38 -96 56 -44 41 -124 73 -185 73 -57 0 -201 72 -314 158 -71
54 -75 60 -82 105 -13 97 -91 156 -203 157 l-60 0 27 23 c55 47 62 96 22 175
-32 65 -62 86 -155 110 l-74 18 -11 107 c-15 146 -31 183 -111 258 -62 58
-148 109 -184 109 -9 0 -24 22 -39 58 -84 208 -199 309 -363 320 -114 7 -215
-34 -334 -134 -45 -39 -126 -135 -152 -182 -8 -14 -15 -13 -72 3 -185 52 -387
-10 -712 -218 -147 -93 -179 -107 -258 -107 -89 0 -174 23 -455 125 -388 141
-598 228 -1409 583 -549 240 -687 281 -845 255z m4229 -676 c8 -11 0 -19 -42
-40 -28 -14 -65 -29 -82 -33 l-29 -7 18 29 c10 16 27 37 38 47 24 20 81 23 97
4z"/>
</g>
</svg>
